<?xml version="1.0"?>
<svg xmlns="http://www.w3.org/2000/svg" viewBox="0 0 192 192" width="512" height="512"><title>13-sell</title><g id="_13-sell" data-name="13-sell"><path d="M189.657,138.343c-7.138-7.137-26.793-16.533-50.095-1L117.578,152H91.314l-16-16H112a8,8,0,0,0,7.59-10.53C118.584,122.454,109.155,96,88,96H0v16H88c4.315,0,8.154,3.741,11.068,8H40v16H52.687l29.656,29.657A8,8,0,0,0,88,168h32a7.992,7.992,0,0,0,4.437-1.344l24-16c8.284-5.521,15.122-6.321,20.175-5.5L125.437,176H73.642L19.151,152.647A7.993,7.993,0,0,0,16,152H0v16H14.358l54.491,23.353A7.993,7.993,0,0,0,72,192h56a8,8,0,0,0,4.65-1.49l56-40a8,8,0,0,0,1.007-12.167Z"/><path d="M56,46.4V80a8,8,0,0,0,8,8h64a8,8,0,0,0,8-8V46.4l11.351,8.108,9.3-13.02-56-40a8,8,0,0,0-9.3,0l-56,40,9.3,13.02ZM96,17.831l24,17.143V72H104V48H88V72H72V34.974Z"/></g></svg>
